<svg id="Layer_1" data-name="Layer 1" xmlns="http://www.w3.org/2000/svg" viewBox="0 0 369.99 361"><defs><style>.cls-1{fill:#ededed;}.cls-1,.cls-2,.cls-3,.cls-6{stroke:#1d1d1b;stroke-miterlimit:10;}.cls-2{fill:none;}.cls-3{fill:#fff;}.cls-4,.cls-8{font-size:12px;}.cls-4,.cls-5,.cls-6,.cls-7,.cls-8{fill:#1d1d1b;}.cls-4,.cls-5{font-family:ArialMT, Arial;}.cls-5{font-size:14.38px;}.cls-8{font-family:MyriadPro-Regular, Myriad Pro;}.cls-9{letter-spacing:-0.01em;}.cls-10{letter-spacing:-0.01em;}.cls-11{letter-spacing:0.01em;}.cls-12{letter-spacing:0.01em;}.cls-13{letter-spacing:-0.01em;}.cls-14{letter-spacing:0em;}</style></defs><rect class="cls-1" x="234.23" y="20.5" width="55" height="320"/><polygon class="cls-2" points="89.23 0.5 89.23 360.5 314.24 360.5 314.24 0.5 134.24 0.5 89.23 0.5"/><rect class="cls-3" x="84.23" y="55.5" width="10" height="50"/><text class="cls-4" transform="translate(64.56 85.5)">P1</text><path class="cls-2" d="M225,205" transform="translate(-110.77 -149.5)"/><path class="cls-2" d="M110,225" transform="translate(-110.77 -149.5)"/><text class="cls-5" transform="translate(265.57 217.45) rotate(-90) scale(0.97 1)">MODULE-X</text><text x="-110.77" y="-149.5"/><path class="cls-6" d="M230,280" transform="translate(-110.77 -149.5)"/><path class="cls-6" d="M240,275" transform="translate(-110.77 -149.5)"/><line class="cls-2" x1="114.23" y1="110.5" x2="114.23" y2="140.5"/><line class="cls-2" x1="109.23" y1="130.5" x2="119.23" y2="130.5"/><polygon class="cls-6" points="114.23 130.5 119.23 120.5 109.23 120.5 114.23 130.5"/><line class="cls-2" x1="104.23" y1="120.5" x2="98.62" y2="126.11"/><polygon class="cls-7" points="98.16 123.7 94.23 130.5 101.04 126.57 98.16 123.7"/><line class="cls-2" x1="104.23" y1="125.5" x2="98.62" y2="131.11"/><polygon class="cls-7" points="98.16 128.7 94.23 135.5 101.04 131.57 98.16 128.7"/><path class="cls-2" d="M235,210c4.14,0,7.5,3,7.5,6.67s-3.36,6.66-7.5,6.66" transform="translate(-110.77 -149.5)"/><path class="cls-2" d="M235,223.33c4.14,0,7.5,3,7.5,6.67s-3.36,6.67-7.5,6.67" transform="translate(-110.77 -149.5)"/><path class="cls-2" d="M235,236.67c4.14,0,7.5,3,7.5,6.66S239.14,250,235,250" transform="translate(-110.77 -149.5)"/><path class="cls-2" d="M265,250c-4.14,0-7.5-3-7.5-6.67s3.36-6.66,7.5-6.66" transform="translate(-110.77 -149.5)"/><path class="cls-2" d="M265,236.67c-4.14,0-7.5-3-7.5-6.67s3.36-6.67,7.5-6.67" transform="translate(-110.77 -149.5)"/><path class="cls-2" d="M265,223.33c-4.14,0-7.5-3-7.5-6.66S260.86,210,265,210" transform="translate(-110.77 -149.5)"/><line class="cls-2" x1="136.73" y1="60.5" x2="136.73" y2="100.5"/><line class="cls-2" x1="141.73" y1="60.5" x2="141.73" y2="100.5"/><line class="cls-2" x1="94.23" y1="80.5" x2="124.23" y2="80.5"/><line class="cls-2" x1="154.23" y1="80.5" x2="234.23" y2="80.5"/><path class="cls-6" d="M230,190" transform="translate(-110.77 -149.5)"/><path class="cls-6" d="M240,185" transform="translate(-110.77 -149.5)"/><line class="cls-2" x1="114.23" y1="20.5" x2="114.23" y2="50.5"/><line class="cls-2" x1="109.23" y1="40.5" x2="119.23" y2="40.5"/><polygon class="cls-6" points="114.23 40.5 119.23 30.5 109.23 30.5 114.23 40.5"/><line class="cls-2" x1="104.23" y1="30.5" x2="98.62" y2="36.11"/><polygon class="cls-7" points="98.16 33.7 94.23 40.5 101.04 36.57 98.16 33.7"/><line class="cls-2" x1="104.23" y1="35.5" x2="98.62" y2="41.11"/><polygon class="cls-7" points="98.16 38.7 94.23 45.5 101.04 41.57 98.16 38.7"/><line class="cls-2" x1="129.23" y1="35.5" x2="234.23" y2="35.5"/><line class="cls-2" x1="129.23" y1="125.5" x2="234.23" y2="125.5"/><text class="cls-8" transform="translate(24.12 30.5)">Link/G<tspan class="cls-9" x="32.63" y="0">r</tspan><tspan x="36.43" y="0">een</tspan></text><text class="cls-8" transform="translate(0 130.5)"><tspan class="cls-10">A</tspan><tspan class="cls-11" x="7.2" y="0">c</tspan><tspan x="12.73" y="0">tivi</tspan><tspan class="cls-12" x="28.09" y="0">t</tspan><tspan x="32.17" y="0">y/O</tspan><tspan class="cls-13" x="50.21" y="0">r</tspan><tspan class="cls-14" x="54.07" y="0">ange</tspan></text><text x="-110.77" y="-149.5"/></svg>